<?xml version="1.0" encoding="UTF-8"?>
<svg xmlns="http://www.w3.org/2000/svg" xmlns:xlink="http://www.w3.org/1999/xlink" width="3670" height="3640" viewBox="0 0 3670 3640">
<path fill-rule="nonzero" fill="rgb(100%, 100%, 100%)" fill-opacity="1" d="M 0.796875 3630.640625 L 3669.097656 3630.640625 L 3669.097656 19.441406 L 0.796875 19.441406 Z M 0.796875 3630.640625 "/>
<path fill="none" stroke-width="170.079" stroke-linecap="butt" stroke-linejoin="miter" stroke="rgb(71.679688%, 71.679688%, 71.679688%)" stroke-opacity="1" stroke-dasharray="170.079 1020.47" stroke-miterlimit="4" d="M 7.96875 36307.8125 L 36794.492188 36307.8125 " transform="matrix(0.1, 0, 0, -0.1, 0, 3640)"/>
<path fill="none" stroke-width="170.079" stroke-linecap="butt" stroke-linejoin="miter" stroke="rgb(71.679688%, 71.679688%, 71.679688%)" stroke-opacity="1" stroke-dasharray="170.079 1020.47" stroke-miterlimit="4" d="M 7.96875 34661.71875 L 36794.492188 34661.71875 " transform="matrix(0.1, 0, 0, -0.1, 0, 3640)"/>
<path fill="none" stroke-width="170.079" stroke-linecap="butt" stroke-linejoin="miter" stroke="rgb(71.679688%, 71.679688%, 71.679688%)" stroke-opacity="1" stroke-dasharray="170.079 1020.47" stroke-miterlimit="4" d="M 7.96875 34661.71875 L 36794.492188 34661.71875 " transform="matrix(0.1, 0, 0, -0.1, 0, 3640)"/>
<path fill="none" stroke-width="170.079" stroke-linecap="butt" stroke-linejoin="miter" stroke="rgb(71.679688%, 71.679688%, 71.679688%)" stroke-opacity="1" stroke-dasharray="170.079 1020.47" stroke-miterlimit="4" d="M 7.96875 33015.585938 L 36794.492188 33015.585938 " transform="matrix(0.1, 0, 0, -0.1, 0, 3640)"/>
<path fill="none" stroke-width="170.079" stroke-linecap="butt" stroke-linejoin="miter" stroke="rgb(71.679688%, 71.679688%, 71.679688%)" stroke-opacity="1" stroke-dasharray="170.079 1020.47" stroke-miterlimit="4" d="M 7.96875 33015.585938 L 36794.492188 33015.585938 " transform="matrix(0.1, 0, 0, -0.1, 0, 3640)"/>
<path fill="none" stroke-width="170.079" stroke-linecap="butt" stroke-linejoin="miter" stroke="rgb(71.679688%, 71.679688%, 71.679688%)" stroke-opacity="1" stroke-dasharray="170.079 1020.47" stroke-miterlimit="4" d="M 7.96875 31369.492188 L 36794.492188 31369.492188 " transform="matrix(0.1, 0, 0, -0.1, 0, 3640)"/>
<path fill="none" stroke-width="170.079" stroke-linecap="butt" stroke-linejoin="miter" stroke="rgb(71.679688%, 71.679688%, 71.679688%)" stroke-opacity="1" stroke-dasharray="170.079 1020.47" stroke-miterlimit="4" d="M 7.96875 31369.492188 L 36794.492188 31369.492188 " transform="matrix(0.1, 0, 0, -0.1, 0, 3640)"/>
<path fill="none" stroke-width="170.079" stroke-linecap="butt" stroke-linejoin="miter" stroke="rgb(71.679688%, 71.679688%, 71.679688%)" stroke-opacity="1" stroke-dasharray="170.079 1020.47" stroke-miterlimit="4" d="M 7.96875 29723.398438 L 36794.492188 29723.398438 " transform="matrix(0.1, 0, 0, -0.1, 0, 3640)"/>
<path fill="none" stroke-width="170.079" stroke-linecap="butt" stroke-linejoin="miter" stroke="rgb(71.679688%, 71.679688%, 71.679688%)" stroke-opacity="1" stroke-dasharray="170.079 1020.47" stroke-miterlimit="4" d="M 7.96875 29723.398438 L 36794.492188 29723.398438 " transform="matrix(0.1, 0, 0, -0.1, 0, 3640)"/>
<path fill="none" stroke-width="170.079" stroke-linecap="butt" stroke-linejoin="miter" stroke="rgb(71.679688%, 71.679688%, 71.679688%)" stroke-opacity="1" stroke-dasharray="170.079 1020.47" stroke-miterlimit="4" d="M 7.96875 28077.304688 L 36794.492188 28077.304688 " transform="matrix(0.1, 0, 0, -0.1, 0, 3640)"/>
<path fill="none" stroke-width="170.079" stroke-linecap="butt" stroke-linejoin="miter" stroke="rgb(71.679688%, 71.679688%, 71.679688%)" stroke-opacity="1" stroke-dasharray="170.079 1020.47" stroke-miterlimit="4" d="M 7.96875 28077.304688 L 36794.492188 28077.304688 " transform="matrix(0.1, 0, 0, -0.1, 0, 3640)"/>
<path fill="none" stroke-width="170.079" stroke-linecap="butt" stroke-linejoin="miter" stroke="rgb(71.679688%, 71.679688%, 71.679688%)" stroke-opacity="1" stroke-dasharray="170.079 1020.47" stroke-miterlimit="4" d="M 7.96875 26431.210938 L 36794.492188 26431.210938 " transform="matrix(0.1, 0, 0, -0.1, 0, 3640)"/>
<path fill="none" stroke-width="170.079" stroke-linecap="butt" stroke-linejoin="miter" stroke="rgb(71.679688%, 71.679688%, 71.679688%)" stroke-opacity="1" stroke-dasharray="170.079 1020.47" stroke-miterlimit="4" d="M 7.96875 26431.210938 L 36794.492188 26431.210938 " transform="matrix(0.1, 0, 0, -0.1, 0, 3640)"/>
<path fill="none" stroke-width="170.079" stroke-linecap="butt" stroke-linejoin="miter" stroke="rgb(71.679688%, 71.679688%, 71.679688%)" stroke-opacity="1" stroke-dasharray="170.079 1020.47" stroke-miterlimit="4" d="M 7.96875 24785.117188 L 36794.492188 24785.117188 " transform="matrix(0.1, 0, 0, -0.1, 0, 3640)"/>
<path fill="none" stroke-width="170.079" stroke-linecap="butt" stroke-linejoin="miter" stroke="rgb(71.679688%, 71.679688%, 71.679688%)" stroke-opacity="1" stroke-dasharray="170.079 1020.47" stroke-miterlimit="4" d="M 7.96875 24785.117188 L 36794.492188 24785.117188 " transform="matrix(0.1, 0, 0, -0.1, 0, 3640)"/>
<path fill="none" stroke-width="170.079" stroke-linecap="butt" stroke-linejoin="miter" stroke="rgb(71.679688%, 71.679688%, 71.679688%)" stroke-opacity="1" stroke-dasharray="170.079 1020.47" stroke-miterlimit="4" d="M 7.96875 23138.984375 L 36794.492188 23138.984375 " transform="matrix(0.1, 0, 0, -0.1, 0, 3640)"/>
<path fill="none" stroke-width="170.079" stroke-linecap="butt" stroke-linejoin="miter" stroke="rgb(71.679688%, 71.679688%, 71.679688%)" stroke-opacity="1" stroke-dasharray="170.079 1020.47" stroke-miterlimit="4" d="M 7.96875 23138.984375 L 36794.492188 23138.984375 " transform="matrix(0.1, 0, 0, -0.1, 0, 3640)"/>
<path fill="none" stroke-width="170.079" stroke-linecap="butt" stroke-linejoin="miter" stroke="rgb(71.679688%, 71.679688%, 71.679688%)" stroke-opacity="1" stroke-dasharray="170.079 1020.47" stroke-miterlimit="4" d="M 7.96875 21493.007812 L 36794.492188 21493.007812 " transform="matrix(0.1, 0, 0, -0.1, 0, 3640)"/>
<path fill="none" stroke-width="170.079" stroke-linecap="butt" stroke-linejoin="miter" stroke="rgb(71.679688%, 71.679688%, 71.679688%)" stroke-opacity="1" stroke-dasharray="170.079 1020.47" stroke-miterlimit="4" d="M 7.96875 21493.007812 L 36794.492188 21493.007812 " transform="matrix(0.1, 0, 0, -0.1, 0, 3640)"/>
<path fill="none" stroke-width="170.079" stroke-linecap="butt" stroke-linejoin="miter" stroke="rgb(71.679688%, 71.679688%, 71.679688%)" stroke-opacity="1" stroke-dasharray="170.079 1020.47" stroke-miterlimit="4" d="M 7.96875 19846.914062 L 36794.492188 19846.914062 " transform="matrix(0.1, 0, 0, -0.1, 0, 3640)"/>
<path fill="none" stroke-width="170.079" stroke-linecap="butt" stroke-linejoin="miter" stroke="rgb(71.679688%, 71.679688%, 71.679688%)" stroke-opacity="1" stroke-dasharray="170.079 1020.47" stroke-miterlimit="4" d="M 7.96875 19846.914062 L 36794.492188 19846.914062 " transform="matrix(0.1, 0, 0, -0.1, 0, 3640)"/>
<path fill="none" stroke-width="170.079" stroke-linecap="butt" stroke-linejoin="miter" stroke="rgb(71.679688%, 71.679688%, 71.679688%)" stroke-opacity="1" stroke-dasharray="170.079 1020.47" stroke-miterlimit="4" d="M 7.96875 18200.78125 L 36794.492188 18200.78125 " transform="matrix(0.1, 0, 0, -0.1, 0, 3640)"/>
<path fill="none" stroke-width="170.079" stroke-linecap="butt" stroke-linejoin="miter" stroke="rgb(71.679688%, 71.679688%, 71.679688%)" stroke-opacity="1" stroke-dasharray="170.079 1020.47" stroke-miterlimit="4" d="M 7.96875 18200.78125 L 36794.492188 18200.78125 " transform="matrix(0.1, 0, 0, -0.1, 0, 3640)"/>
<path fill="none" stroke-width="170.079" stroke-linecap="butt" stroke-linejoin="miter" stroke="rgb(71.679688%, 71.679688%, 71.679688%)" stroke-opacity="1" stroke-dasharray="170.079 1020.47" stroke-miterlimit="4" d="M 7.96875 16554.6875 L 36794.492188 16554.6875 " transform="matrix(0.1, 0, 0, -0.1, 0, 3640)"/>
<path fill="none" stroke-width="170.079" stroke-linecap="butt" stroke-linejoin="miter" stroke="rgb(71.679688%, 71.679688%, 71.679688%)" stroke-opacity="1" stroke-dasharray="170.079 1020.47" stroke-miterlimit="4" d="M 7.96875 16554.6875 L 36794.492188 16554.6875 " transform="matrix(0.1, 0, 0, -0.1, 0, 3640)"/>
<path fill="none" stroke-width="170.079" stroke-linecap="butt" stroke-linejoin="miter" stroke="rgb(71.679688%, 71.679688%, 71.679688%)" stroke-opacity="1" stroke-dasharray="170.079 1020.47" stroke-miterlimit="4" d="M 7.96875 14908.59375 L 36794.492188 14908.59375 " transform="matrix(0.1, 0, 0, -0.1, 0, 3640)"/>
<path fill="none" stroke-width="170.079" stroke-linecap="butt" stroke-linejoin="miter" stroke="rgb(71.679688%, 71.679688%, 71.679688%)" stroke-opacity="1" stroke-dasharray="170.079 1020.47" stroke-miterlimit="4" d="M 7.96875 14908.59375 L 36794.492188 14908.59375 " transform="matrix(0.1, 0, 0, -0.1, 0, 3640)"/>
<path fill="none" stroke-width="170.079" stroke-linecap="butt" stroke-linejoin="miter" stroke="rgb(71.679688%, 71.679688%, 71.679688%)" stroke-opacity="1" stroke-dasharray="170.079 1020.47" stroke-miterlimit="4" d="M 7.96875 13262.5 L 36794.492188 13262.5 " transform="matrix(0.1, 0, 0, -0.1, 0, 3640)"/>
<path fill="none" stroke-width="170.079" stroke-linecap="butt" stroke-linejoin="miter" stroke="rgb(71.679688%, 71.679688%, 71.679688%)" stroke-opacity="1" stroke-dasharray="170.079 1020.47" stroke-miterlimit="4" d="M 7.96875 13262.5 L 36794.492188 13262.5 " transform="matrix(0.1, 0, 0, -0.1, 0, 3640)"/>
<path fill="none" stroke-width="170.079" stroke-linecap="butt" stroke-linejoin="miter" stroke="rgb(71.679688%, 71.679688%, 71.679688%)" stroke-opacity="1" stroke-dasharray="170.079 1020.47" stroke-miterlimit="4" d="M 7.96875 11616.40625 L 36794.492188 11616.40625 " transform="matrix(0.1, 0, 0, -0.1, 0, 3640)"/>
<path fill="none" stroke-width="170.079" stroke-linecap="butt" stroke-linejoin="miter" stroke="rgb(71.679688%, 71.679688%, 71.679688%)" stroke-opacity="1" stroke-dasharray="170.079 1020.47" stroke-miterlimit="4" d="M 7.96875 11616.40625 L 36794.492188 11616.40625 " transform="matrix(0.1, 0, 0, -0.1, 0, 3640)"/>
<path fill="none" stroke-width="170.079" stroke-linecap="butt" stroke-linejoin="miter" stroke="rgb(71.679688%, 71.679688%, 71.679688%)" stroke-opacity="1" stroke-dasharray="170.079 1020.47" stroke-miterlimit="4" d="M 7.96875 9970.3125 L 36794.492188 9970.3125 " transform="matrix(0.1, 0, 0, -0.1, 0, 3640)"/>
<path fill="none" stroke-width="170.079" stroke-linecap="butt" stroke-linejoin="miter" stroke="rgb(71.679688%, 71.679688%, 71.679688%)" stroke-opacity="1" stroke-dasharray="170.079 1020.47" stroke-miterlimit="4" d="M 7.96875 9970.3125 L 36794.492188 9970.3125 " transform="matrix(0.1, 0, 0, -0.1, 0, 3640)"/>
<path fill="none" stroke-width="170.079" stroke-linecap="butt" stroke-linejoin="miter" stroke="rgb(71.679688%, 71.679688%, 71.679688%)" stroke-opacity="1" stroke-dasharray="170.079 1020.47" stroke-miterlimit="4" d="M 7.96875 8324.21875 L 36794.492188 8324.21875 " transform="matrix(0.1, 0, 0, -0.1, 0, 3640)"/>
<path fill="none" stroke-width="170.079" stroke-linecap="butt" stroke-linejoin="miter" stroke="rgb(71.679688%, 71.679688%, 71.679688%)" stroke-opacity="1" stroke-dasharray="170.079 1020.47" stroke-miterlimit="4" d="M 7.96875 8324.21875 L 36794.492188 8324.21875 " transform="matrix(0.1, 0, 0, -0.1, 0, 3640)"/>
<path fill="none" stroke-width="170.079" stroke-linecap="butt" stroke-linejoin="miter" stroke="rgb(71.679688%, 71.679688%, 71.679688%)" stroke-opacity="1" stroke-dasharray="170.079 1020.47" stroke-miterlimit="4" d="M 7.96875 6678.125 L 36794.492188 6678.125 " transform="matrix(0.1, 0, 0, -0.1, 0, 3640)"/>
<path fill="none" stroke-width="170.079" stroke-linecap="butt" stroke-linejoin="miter" stroke="rgb(71.679688%, 71.679688%, 71.679688%)" stroke-opacity="1" stroke-dasharray="170.079 1020.47" stroke-miterlimit="4" d="M 7.96875 6678.125 L 36794.492188 6678.125 " transform="matrix(0.1, 0, 0, -0.1, 0, 3640)"/>
<path fill="none" stroke-width="170.079" stroke-linecap="butt" stroke-linejoin="miter" stroke="rgb(71.679688%, 71.679688%, 71.679688%)" stroke-opacity="1" stroke-dasharray="170.079 1020.47" stroke-miterlimit="4" d="M 7.96875 5032.03125 L 36794.492188 5032.03125 " transform="matrix(0.1, 0, 0, -0.1, 0, 3640)"/>
<path fill="none" stroke-width="170.079" stroke-linecap="butt" stroke-linejoin="miter" stroke="rgb(71.679688%, 71.679688%, 71.679688%)" stroke-opacity="1" stroke-dasharray="170.079 1020.47" stroke-miterlimit="4" d="M 7.96875 5032.03125 L 36794.492188 5032.03125 " transform="matrix(0.1, 0, 0, -0.1, 0, 3640)"/>
<path fill="none" stroke-width="170.079" stroke-linecap="butt" stroke-linejoin="miter" stroke="rgb(71.679688%, 71.679688%, 71.679688%)" stroke-opacity="1" stroke-dasharray="170.079 1020.47" stroke-miterlimit="4" d="M 7.96875 3385.9375 L 36794.492188 3385.9375 " transform="matrix(0.1, 0, 0, -0.1, 0, 3640)"/>
<path fill="none" stroke-width="170.079" stroke-linecap="butt" stroke-linejoin="miter" stroke="rgb(71.679688%, 71.679688%, 71.679688%)" stroke-opacity="1" stroke-dasharray="170.079 1020.47" stroke-miterlimit="4" d="M 7.96875 3385.9375 L 36794.492188 3385.9375 " transform="matrix(0.1, 0, 0, -0.1, 0, 3640)"/>
<path fill="none" stroke-width="170.079" stroke-linecap="butt" stroke-linejoin="miter" stroke="rgb(71.679688%, 71.679688%, 71.679688%)" stroke-opacity="1" stroke-dasharray="170.079 1020.47" stroke-miterlimit="4" d="M 7.96875 1739.882812 L 36794.492188 1739.882812 " transform="matrix(0.1, 0, 0, -0.1, 0, 3640)"/>
<path fill="none" stroke-width="170.079" stroke-linecap="butt" stroke-linejoin="miter" stroke="rgb(71.679688%, 71.679688%, 71.679688%)" stroke-opacity="1" stroke-dasharray="170.079 1020.47" stroke-miterlimit="4" d="M 7.96875 1739.882812 L 36794.492188 1739.882812 " transform="matrix(0.1, 0, 0, -0.1, 0, 3640)"/>
<path fill="none" stroke-width="170.079" stroke-linecap="butt" stroke-linejoin="miter" stroke="rgb(71.679688%, 71.679688%, 71.679688%)" stroke-opacity="1" stroke-dasharray="170.079 1020.47" stroke-miterlimit="4" d="M 7.96875 93.789062 L 36794.492188 93.789062 " transform="matrix(0.1, 0, 0, -0.1, 0, 3640)"/>
<path fill="none" stroke-width="170.079" stroke-linecap="butt" stroke-linejoin="miter" stroke="rgb(71.679688%, 71.679688%, 71.679688%)" stroke-opacity="1" stroke-dasharray="170.079 1020.47" stroke-miterlimit="4" d="M 7.96875 93.789062 L 36794.492188 93.789062 " transform="matrix(0.1, 0, 0, -0.1, 0, 3640)"/>
</svg>
